<?xml version="1.0" encoding="utf-8"?>
<!-- Generator: Adobe Illustrator 16.0.0, SVG Export Plug-In . SVG Version: 6.00 Build 0)  -->
<!DOCTYPE svg PUBLIC "-//W3C//DTD SVG 1.1//EN" "http://www.w3.org/Graphics/SVG/1.1/DTD/svg11.dtd">
<svg version="1.1" id="Layer_1" xmlns="http://www.w3.org/2000/svg" xmlns:xlink="http://www.w3.org/1999/xlink" x="0px" y="0px"
	 width="211px" height="217px" viewBox="0 0 211 217" enable-background="new 0 0 211 217" xml:space="preserve">
<path fill="#0080FF" d="M0,0h2.705v2.705H0V0z M29.754,0h2.705v2.705h-2.705V0z M59.508,0h2.705v2.705h-2.705V0z M89.262,0h2.705
	v2.705h-2.705V0z M119.016,0h2.705v2.705h-2.705V0z M148.77,0h2.705v2.705h-2.705V0z M178.525,0h2.705v2.705h-2.705V0z M208.279,0
	h2.705v2.705h-2.705V0z M0,42.705h2.705v2.705H0V42.705z M29.754,42.705h2.705v2.705h-2.705V42.705z M59.508,42.705h2.705v2.705
	h-2.705V42.705z M89.262,42.705h2.705v2.705h-2.705V42.705z M119.016,42.705h2.705v2.705h-2.705V42.705z M148.77,42.705h2.705v2.705
	h-2.705V42.705z M178.525,42.705h2.705v2.705h-2.705V42.705z M208.279,42.705h2.705v2.705h-2.705V42.705z M0,85.41h2.705v2.705H0
	V85.41z M29.754,85.41h2.705v2.705h-2.705V85.41z M59.508,85.41h2.705v2.705h-2.705V85.41z M89.262,85.41h2.705v2.705h-2.705V85.41z
	 M119.016,85.41h2.705v2.705h-2.705V85.41z M148.77,85.41h2.705v2.705h-2.705V85.41z M178.525,85.41h2.705v2.705h-2.705V85.41z
	 M208.279,85.41h2.705v2.705h-2.705V85.41z M0,128.115h2.705v2.705H0V128.115z M29.754,128.115h2.705v2.705h-2.705V128.115z
	 M59.508,128.115h2.705v2.705h-2.705V128.115z M89.262,128.115h2.705v2.705h-2.705V128.115z M119.016,128.115h2.705v2.705h-2.705
	V128.115z M148.77,128.115h2.705v2.705h-2.705V128.115z M178.525,128.115h2.705v2.705h-2.705V128.115z M208.279,128.115h2.705v2.705
	h-2.705V128.115z M0,170.818h2.705v2.705H0V170.818z M29.754,170.818h2.705v2.705h-2.705V170.818z M59.508,170.818h2.705v2.705
	h-2.705V170.818z M89.262,170.818h2.705v2.705h-2.705V170.818z M119.016,170.818h2.705v2.705h-2.705V170.818z M148.77,170.818h2.705
	v2.705h-2.705V170.818z M178.525,170.818h2.705v2.705h-2.705V170.818z M208.279,170.818h2.705v2.705h-2.705V170.818z M0,213.523
	h2.705v2.705H0V213.523z M29.754,213.523h2.705v2.705h-2.705V213.523z M59.508,213.523h2.705v2.705h-2.705V213.523z M89.262,213.523
	h2.705v2.705h-2.705V213.523z M119.016,213.523h2.705v2.705h-2.705V213.523z M148.77,213.523h2.705v2.705h-2.705V213.523z
	 M178.525,213.523h2.705v2.705h-2.705V213.523z M208.279,213.523h2.705v2.705h-2.705V213.523z"/>
</svg>
