<?xml version="1.0" encoding="utf-8"?>
<!-- Generator: Adobe Illustrator 16.0.0, SVG Export Plug-In . SVG Version: 6.00 Build 0)  -->
<!DOCTYPE svg PUBLIC "-//W3C//DTD SVG 1.1//EN" "http://www.w3.org/Graphics/SVG/1.1/DTD/svg11.dtd">
<svg version="1.1" id="Layer_1" xmlns="http://www.w3.org/2000/svg" xmlns:xlink="http://www.w3.org/1999/xlink" x="0px" y="0px"
	 width="612px" height="792px" viewBox="0 0 612 792" enable-background="new 0 0 612 792" xml:space="preserve">
<path fill="#1AC643" d="M538.959,559.041c19.336,19.336,19.336,50.66,0,69.996C529.368,638.705,516.684,643.5,504,643.5
	c-12.685,0-25.338-4.834-34.991-14.502L306,466.073L143.006,628.959C133.338,638.705,120.669,643.5,108,643.5
	s-25.322-4.795-34.998-14.541c-19.336-19.336-19.336-50.66,0-69.996l163.04-163.04L73.002,232.959
	c-19.336-19.336-19.336-50.66,0-69.996s50.66-19.336,69.996,0L306,326.081l163.04-163.041c19.336-19.336,50.66-19.336,69.996,0
	s19.336,50.66,0,69.996l-163.04,163.041L538.959,559.041z"/>
</svg>
