<?xml version="1.0" encoding="utf-8"?>
<!-- Generator: Adobe Illustrator 16.0.0, SVG Export Plug-In . SVG Version: 6.00 Build 0)  -->
<!DOCTYPE svg PUBLIC "-//W3C//DTD SVG 1.1//EN" "http://www.w3.org/Graphics/SVG/1.1/DTD/svg11.dtd">
<svg version="1.1" id="Layer_1" xmlns="http://www.w3.org/2000/svg" xmlns:xlink="http://www.w3.org/1999/xlink" x="0px" y="0px"
	 width="211px" height="473px" viewBox="0 0 211 473" enable-background="new 0 0 211 473" xml:space="preserve">
<path fill="#0080FF" d="M0,0h2.705v2.705H0V0z M29.754,0h2.705v2.705h-2.705V0z M59.508,0h2.705v2.705h-2.705V0z M89.262,0h2.705
	v2.705h-2.705V0z M119.016,0h2.705v2.705h-2.705V0z M148.771,0h2.705v2.705h-2.705V0z M178.525,0h2.705v2.705h-2.705V0z M208.279,0
	h2.705v2.705h-2.705V0z M0,42.705h2.705v2.705H0V42.705z M29.754,42.705h2.705v2.705h-2.705V42.705z M59.508,42.705h2.705v2.705
	h-2.705V42.705z M89.262,42.705h2.705v2.705h-2.705V42.705z M119.016,42.705h2.705v2.705h-2.705V42.705z M148.771,42.705h2.705
	v2.705h-2.705V42.705z M178.525,42.705h2.705v2.705h-2.705V42.705z M208.279,42.705h2.705v2.705h-2.705V42.705z M0,85.41h2.705
	v2.705H0V85.41z M29.754,85.41h2.705v2.705h-2.705V85.41z M59.508,85.41h2.705v2.705h-2.705V85.41z M89.262,85.41h2.705v2.705
	h-2.705V85.41z M119.016,85.41h2.705v2.705h-2.705V85.41z M148.771,85.41h2.705v2.705h-2.705V85.41z M178.525,85.41h2.705v2.705
	h-2.705V85.41z M208.279,85.41h2.705v2.705h-2.705V85.41z M0,128.115h2.705v2.705H0V128.115z M29.754,128.115h2.705v2.705h-2.705
	V128.115z M59.508,128.115h2.705v2.705h-2.705V128.115z M89.262,128.115h2.705v2.705h-2.705V128.115z M119.016,128.115h2.705v2.705
	h-2.705V128.115z M148.771,128.115h2.705v2.705h-2.705V128.115z M178.525,128.115h2.705v2.705h-2.705V128.115z M208.279,128.115
	h2.705v2.705h-2.705V128.115z M0,170.82h2.705v2.705H0V170.82z M29.754,170.82h2.705v2.705h-2.705V170.82z M59.508,170.82h2.705
	v2.705h-2.705V170.82z M89.262,170.82h2.705v2.705h-2.705V170.82z M119.016,170.82h2.705v2.705h-2.705V170.82z M148.771,170.82
	h2.705v2.705h-2.705V170.82z M178.525,170.82h2.705v2.705h-2.705V170.82z M208.279,170.82h2.705v2.705h-2.705V170.82z M0,213.525
	h2.705v2.705H0V213.525z M29.754,213.525h2.705v2.705h-2.705V213.525z M59.508,213.525h2.705v2.705h-2.705V213.525z M89.262,213.525
	h2.705v2.705h-2.705V213.525z M119.016,213.525h2.705v2.705h-2.705V213.525z M148.771,213.525h2.705v2.705h-2.705V213.525z
	 M178.525,213.525h2.705v2.705h-2.705V213.525z M208.279,213.525h2.705v2.705h-2.705V213.525z M0,256.23h2.705v2.705H0V256.23z
	 M29.754,256.23h2.705v2.705h-2.705V256.23z M59.508,256.23h2.705v2.705h-2.705V256.23z M89.262,256.23h2.705v2.705h-2.705V256.23z
	 M119.016,256.23h2.705v2.705h-2.705V256.23z M148.771,256.23h2.705v2.705h-2.705V256.23z M178.525,256.23h2.705v2.705h-2.705
	V256.23z M208.279,256.23h2.705v2.705h-2.705V256.23z M0,298.934h2.705v2.705H0V298.934z M29.754,298.934h2.705v2.705h-2.705
	V298.934z M59.508,298.934h2.705v2.705h-2.705V298.934z M89.262,298.934h2.705v2.705h-2.705V298.934z M119.016,298.934h2.705v2.705
	h-2.705V298.934z M148.771,298.934h2.705v2.705h-2.705V298.934z M178.525,298.934h2.705v2.705h-2.705V298.934z M208.279,298.934
	h2.705v2.705h-2.705V298.934z M0,341.639h2.705v2.705H0V341.639z M29.754,341.639h2.705v2.705h-2.705V341.639z M59.508,341.639
	h2.705v2.705h-2.705V341.639z M89.262,341.639h2.705v2.705h-2.705V341.639z M119.016,341.639h2.705v2.705h-2.705V341.639z
	 M148.771,341.639h2.705v2.705h-2.705V341.639z M178.525,341.639h2.705v2.705h-2.705V341.639z M208.279,341.639h2.705v2.705h-2.705
	V341.639z M0,384.344h2.705v2.705H0V384.344z M29.754,384.344h2.705v2.705h-2.705V384.344z M59.508,384.344h2.705v2.705h-2.705
	V384.344z M89.262,384.344h2.705v2.705h-2.705V384.344z M119.016,384.344h2.705v2.705h-2.705V384.344z M148.771,384.344h2.705v2.705
	h-2.705V384.344z M178.525,384.344h2.705v2.705h-2.705V384.344z M208.279,384.344h2.705v2.705h-2.705V384.344z M0,427.049h2.705
	v2.705H0V427.049z M29.754,427.049h2.705v2.705h-2.705V427.049z M59.508,427.049h2.705v2.705h-2.705V427.049z M89.262,427.049h2.705
	v2.705h-2.705V427.049z M119.016,427.049h2.705v2.705h-2.705V427.049z M148.771,427.049h2.705v2.705h-2.705V427.049z
	 M178.525,427.049h2.705v2.705h-2.705V427.049z M208.279,427.049h2.705v2.705h-2.705V427.049z M0,469.754h2.705v2.705H0V469.754z
	 M29.754,469.754h2.705v2.705h-2.705V469.754z M59.508,469.754h2.705v2.705h-2.705V469.754z M89.262,469.754h2.705v2.705h-2.705
	V469.754z M119.016,469.754h2.705v2.705h-2.705V469.754z M148.771,469.754h2.705v2.705h-2.705V469.754z M178.525,469.754h2.705
	v2.705h-2.705V469.754z M208.279,469.754h2.705v2.705h-2.705V469.754z"/>
</svg>
